HIERARCHY
ROOT root     
{
	OFFSET 0.0000 0.0000 0.0000
	CHANNELS 6 Xposition Yposition Zposition Zrotation Yrotation Xrotation
	JOINT pelvis   
	{
		OFFSET 0.0000 0.0000 0.0000
		CHANNELS 3 Zrotation Yrotation Xrotation
		JOINT thorax   
		{
			OFFSET 0.0000 23.0750 -5.0000
			CHANNELS 3 Zrotation Yrotation Xrotation
			JOINT rclavicle
			{
				OFFSET 0.0000 28.0009 0.0000
				CHANNELS 3 Zrotation Yrotation Xrotation
				JOINT rhumerus 
				{
					OFFSET -18.5725 5.5939 0.0000
					CHANNELS 3 Zrotation Yrotation Xrotation
					JOINT rradius  
					{
						OFFSET -24.8459 0.0000 0.0000
						CHANNELS 3 Zrotation Yrotation Xrotation
						JOINT rhand    
						{
							OFFSET -24.5477 0.0000 0.0000
							CHANNELS 3 Zrotation Yrotation Xrotation
							End Site
							{
								OFFSET -8.1826 0.0000 0.0000
							}
						}
					}
				}
			}
			JOINT lclavicle
			{
				OFFSET 0.0000 28.0009 0.0000
				CHANNELS 3 Zrotation Yrotation Xrotation
				JOINT lhumerus 
				{
					OFFSET 18.5725 5.5939 0.0000
					CHANNELS 3 Zrotation Yrotation Xrotation
					JOINT lradius  
					{
						OFFSET 24.8459 0.0000 0.0000
						CHANNELS 3 Zrotation Yrotation Xrotation
						JOINT lhand    
						{
							OFFSET 24.5477 0.0000 0.0000
							CHANNELS 3 Zrotation Yrotation Xrotation
							End Site
							{
								OFFSET 8.1826 0.0000 0.0000
							}
						}
					}
				}
			}
			JOINT head     
			{
				OFFSET 0.0000 35.2030 0.0000
				CHANNELS 3 Zrotation Yrotation Xrotation
				End Site
				{
					OFFSET 0.0000 11.7343 0.0000
				}
			}
		}
		JOINT rfemur   
		{
			OFFSET -8.2817 0.0000 0.0000
			CHANNELS 3 Zrotation Yrotation Xrotation
			JOINT rtibia   
			{
				OFFSET 0.0000 -43.3627 0.0000
				CHANNELS 3 Zrotation Yrotation Xrotation
				JOINT rfoot    
				{
					OFFSET 0.0000 -38.2947 0.0000
					CHANNELS 3 Zrotation Yrotation Xrotation
					JOINT rtoes    
					{
						OFFSET 0.0000 0.0000 16.6054
						CHANNELS 3 Zrotation Yrotation Xrotation
						End Site
						{
							OFFSET 0.0000 0.0000 5.5351
						}
					}
				}
			}
		}
		JOINT lfemur   
		{
			OFFSET 8.2817 0.0000 0.0000
			CHANNELS 3 Zrotation Yrotation Xrotation
			JOINT ltibia   
			{
				OFFSET 0.0000 -43.3627 0.0000
				CHANNELS 3 Zrotation Yrotation Xrotation
				JOINT lfoot    
				{
					OFFSET 0.0000 -38.2947 0.0000
					CHANNELS 3 Zrotation Yrotation Xrotation
					JOINT ltoes    
					{
						OFFSET 0.0000 0.0000 16.6054
						CHANNELS 3 Zrotation Yrotation Xrotation
						End Site
						{
							OFFSET 0.0000 0.0000 5.5351
						}
					}
				}
			}
		}
	}
}
MOTION
Frames: 17
Frame Time: .0333333
-30.084 80.189 -13.532 15.7337 83.7719 39.0273 0 -0 0 -0.437392 -11.4712 23.3545 22.784 -12.2634 1.49165e-06 54.4247 -25.1584 11.3868 180 80.6788 180 -9.13895 4.2404 -0.339108 -15.9958 9.68081 -5.00795e-05 -30.6287 -9.64937 -14.0368 180 -71.7919 180 11.2307 4.96002 0.487995 5.57568 -6.83021 -10.9876 26.7544 -18.4147 -61.8248 -0 -0 26.1106 -1.60679e-05 -15.4743 3.93456 -1.0882 -1.26005e-06 -47.8626 0.0567532 17.597 -29.8023 -0 -0 54.4264 -3.97506e-07 1.1274 -4.55463 -0.089499 3.63851e-07 -66.139 
-28.774 79.91 -13.342 21.1661 83.4887 44.0829 0 -0 0 -0.542402 -11.6154 23.2642 22.7748 -12.502 8.22442e-05 54.7851 -25.2903 11.2032 -180 80.3177 -180 -8.64141 4.37451 -0.330694 -16.1106 9.7635 1.25927e-05 -30.7384 -8.88326 -13.6221 180 -71.1792 -180 11.1416 4.92159 0.480293 5.40688 -7.11011 -11.1812 26.3886 -18.8291 -61.8284 -0 -0 26.5484 -8.67148e-06 -15.136 3.52931 -0.953889 1.30039e-06 -45.7512 -0.0493639 17.7652 -28.389 -0 -0 54.3164 3.76095e-07 0.448907 -4.42764 -0.034701 3.3227e-07 -67.1275 
-27.454 79.597 -13.149 25.719 83.1348 48.2404 0 -0 0 -0.585348 -11.7108 23.164 22.7712 -12.6947 1.87648e-05 55.1283 -25.3953 11.0009 -180 79.9878 -180 -8.2106 4.49214 -0.322604 -16.2589 9.83048 -3.47421e-05 -30.899 -8.05874 -13.1212 180 -70.6073 180 11.0312 4.85717 0.469307 5.16805 -7.38829 -11.4056 25.7347 -19.0763 -61.8478 -0 -0 27.673 1.12044e-05 -14.9412 2.74682 -0.732704 -1.0822e-06 -42.1597 -0.0882036 17.9824 -26.975 -0 -0 54.2986 3.33519e-07 -0.308105 -4.3172 0.0232004 1.4733e-07 -68.1896 
-26.122 79.256 -12.951 29.3543 82.7347 51.4482 0 -0 0 -0.5604 -11.7638 23.075 22.7801 -12.8242 -0.000129844 55.4437 -25.4602 10.7731 180 79.6973 180 -7.83683 4.61905 -0.316598 -16.4349 9.87485 3.58855e-05 -31.118 -7.16068 -12.5536 180 -70.0654 -180 10.8821 4.76496 0.4541 4.86377 -7.65177 -11.6564 24.8498 -19.1844 -61.8776 -0 -0 29.4337 -1.10831e-05 -14.8851 1.57094 -0.417497 6.31675e-06 -36.7676 -0.0382728 18.2408 -25.5444 -0 -0 54.3698 -7.49754e-07 -1.14271 -4.20342 0.0838012 -4.52167e-07 -69.3422 
-24.776 78.89 -12.745 32.1108 82.3156 53.7331 0 -0 0 -0.463403 -11.7851 23.023 22.8068 -12.8755 4.25305e-05 55.7234 -25.4677 10.5128 -180 79.4698 -180 -7.50804 4.77624 -0.313599 -16.6353 9.8951 -6.09539e-06 -31.4005 -6.18091 -11.9364 180 -69.5541 -180 10.6773 4.643 0.434103 4.50301 -7.88775 -11.9268 23.8146 -19.1933 -61.9049 -0 -0 31.7418 7.45889e-10 -14.9415 -0.00260005 0.000699988 -4.37385e-09 -29.2554 0.12494 18.5199 -24.0792 -0 -0 54.5292 2.58416e-06 -2.04834 -4.05956 0.1451 -7.59169e-07 -70.5876 
-23.415 78.507 -12.525 34.0419 81.9041 55.1368 0 -0 0 -0.286792 -11.787 23.0256 22.8555 -12.8389 -5.43622e-05 55.9601 -25.3965 10.2142 -180 79.3128 -180 -7.21231 4.97609 -0.313801 -16.8559 9.88608 1.36536e-05 -31.7524 -5.10652 -11.2844 180 -69.077 -180 10.4001 4.48941 0.408794 4.09769 -8.08552 -12.2052 22.7115 -19.1387 -61.9056 -0 -0 34.4586 6.21437e-06 -15.0939 -1.92066 0.517906 6.17694e-07 -19.6831 0.425889 18.7964 -22.5681 -0 -0 54.7696 4.36279e-07 -3.01099 -3.8529 0.202495 -3.71368e-06 -71.9114 
-22.041 78.113 -12.285 35.2198 81.5194 55.7306 0 -0 0 -0.0251889 -11.7841 23.0958 22.93 -12.7053 -5.64089e-05 56.1474 -25.2163 9.87434 180 79.2535 180 -6.94349 5.21804 -0.316803 -17.095 9.85044 4.181e-05 -32.1775 -3.93824 -10.6142 180 -68.6327 -180 10.0377 4.30241 0.377999 3.6612 -8.23753 -12.4771 21.6103 -19.0456 -61.8477 -0 -0 37.407 7.092e-06 -15.3346 -4.00555 1.09729 -1.43022e-07 -9.12173 0.877623 19.0392 -21.012 -0 -0 55.0875 2.42656e-06 -4.00576 -3.54923 0.248397 -4.18236e-06 -73.2743 
-20.661 77.719 -12.023 35.7096 81.1809 55.5902 0 -0 0 0.328407 -11.7867 23.2314 23.0299 -12.4734 8.42776e-05 56.2805 -24.9054 9.49434 180 79.3144 180 -6.70276 5.48934 -0.321699 -17.3521 9.78521 -6.7815e-05 -32.6815 -2.66976 -9.93701 180 -68.2381 -180 9.58105 4.08083 0.3421 3.20773 -8.34126 -12.7287 20.5632 -18.9189 -61.6978 -0 -0 40.4111 -6.45708e-06 -15.666 -5.98783 -178.324 -2.41974e-07 -0.514199 1.48293 19.2106 -19.4291 -0 -0 55.4773 -3.43234e-06 -5.00021 -3.11668 0.272602 3.32189e-06 -74.621 
-19.282 77.332 -11.734 35.5683 80.8934 54.7871 0 -0 0 0.771475 -11.8063 23.4217 23.1556 -12.1491 -4.97239e-05 56.3539 -24.4416 9.08215 -180 79.5095 -180 -6.50161 5.76364 -0.327599 -17.622 9.69332 -8.94525e-05 -33.2675 -1.30714 -9.25882 180 -67.8985 -180 9.02825 3.82479 0.302092 2.75481 -8.39958 -12.9426 19.608 -18.7607 -61.4352 -0 -0 43.3476 4.21415e-06 -16.0618 -7.71666 -177.786 4.63615e-06 -7.99944 2.22594 19.2721 -17.8492 -0 -0 55.936 5.50008e-06 -5.95662 -2.5324 0.264101 -4.76712e-06 -75.8711 
-17.912 76.96 -11.418 34.8667 80.6609 53.4131 0 -0 0 1.30141 -11.8499 23.6446 23.3077 -11.7431 -3.23733e-05 56.3634 -23.8108 8.65077 -180 79.8523 -180 -6.36016 6.00623 -0.334002 -17.8988 9.57566 -2.42973e-05 -33.9364 0.144465 -8.58268 180 -67.6377 -180 8.3847 3.53608 0.259303 2.31861 -8.42215 -13.1033 18.7776 -18.5676 -61.0557 -0 -0 46.1278 -2.23756e-05 -16.4895 -9.20337 -177.289 -4.77102e-06 -13.3022 3.08063 19.1916 -16.3147 -0 -0 56.4643 2.28389e-06 -6.83799 -1.78595 0.214102 3.34733e-06 -76.933 
-16.558 76.608 -11.075 33.7171 80.4667 51.5976 0 -0 0 1.89459 -11.9208 23.8846 23.4859 -11.2743 3.83716e-05 56.3096 -23.0059 8.21495 180 80.3472 180 -6.30562 6.17874 -0.340703 -18.1718 9.43104 9.26507e-06 -34.6904 1.67807 -7.90824 180 -67.4702 -180 7.66304 3.21896 0.2156 1.91833 -8.42411 -13.1979 18.0868 -18.3583 -60.567 -0 -0 48.7045 -5.02343e-05 -16.9085 -10.5204 -176.823 -9.62661e-06 -16.8129 3.99963 18.9362 -14.8546 -0 -0 57.0591 -6.91533e-07 -7.60726 -0.88039 0.117601 5.65681e-07 -77.7164 
-15.227 76.281 -10.708 32.2142 80.3108 49.4516 0 -0 0 2.5313 -12.0185 24.1178 23.6911 -10.7671 -3.42781e-05 56.1927 -22.0306 7.79286 -180 80.9846 -180 -6.3673 6.24226 -0.347598 -18.4304 9.26397 6.98551e-05 -35.5242 3.27617 -7.22907 180 -67.4139 -180 6.88357 2.88028 0.173301 1.56913 -8.42533 -13.2153 17.5346 -18.1367 -59.9799 -0 -0 51.0383 2.83541e-05 -17.2988 -11.7392 -176.374 -2.54645e-06 -19.0076 4.93219 18.4904 -13.5144 -0 -0 57.7182 2.12013e-07 -8.23421 0.163405 -0.0236003 -2.43599e-07 -78.094 
-13.922 75.982 -10.323 30.501 80.1644 47.1339 0 -0 0 3.18302 -12.1371 24.3237 23.9222 -10.249 6.24794e-05 56.0184 -20.8937 7.40214 -180 81.7483 -180 -6.57159 6.16616 -0.354295 -18.6623 9.07652 8.57538e-05 -36.4367 4.92095 -6.53787 180 -67.4967 -180 6.07291 2.52934 0.134206 1.285 -8.44826 -13.153 17.1028 -17.9126 -59.3086 -0 -0 53.1141 0.000139546 -17.6414 -12.9107 -175.936 -1.59869e-05 -20.183 5.82284 17.8477 -12.323 -0 -0 58.4474 -1.21652e-06 -8.69659 1.31151 -0.2006 -2.12831e-06 -77.9954 
-12.649 75.712 -9.9251 28.6993 80.0227 44.7774 0 -0 0 3.82518 -12.2678 24.4824 24.1796 -9.7466 9.42349e-06 55.793 -19.617 7.05669 180 82.6139 180 -6.93655 5.92754 -0.359598 -18.8561 8.87347 -2.35203e-06 -37.4178 6.59192 -5.82589 180 -67.7309 -180 5.26061 2.17726 0.0999959 1.07409 -8.51599 -13.0097 16.7676 -17.6887 -58.5703 -0 -0 54.9311 0.000159958 -17.9327 -14.0759 -175.5 -2.0379e-05 -20.7136 6.62336 17.0195 -11.3126 -0 -0 59.2504 -6.20212e-06 -8.98285 2.5122 -0.396989 3.2049e-06 -77.2582 
-11.407 75.469 -9.5207 26.9624 79.8675 42.5406 0 -0 0 4.42758 -12.3968 24.5854 24.4577 -9.285 -5.09046e-06 55.5324 -18.2261 6.76568 -180 83.5419 -180 -7.46691 5.52082 -0.36051 -19.0015 8.65776 -1.6703e-06 -38.4547 8.26848 -5.08477 180 -68.1363 180 4.48004 1.8373 0.0718987 0.942428 -8.64984 -12.794 16.4943 -17.4731 -57.779 -0 -0 56.5076 9.06393e-05 -18.1671 -15.246 -175.068 1.35961e-05 -20.724 7.29036 16.0301 -10.4965 -0 -0 60.13 -2.1034e-06 -9.0897 3.71366 -0.593694 6.00047e-06 -75.9219 
-10.199 75.254 -9.1161 25.3951 79.6902 40.5335 0 -0 0 4.97317 -12.5112 24.6198 24.7506 -8.88335 -4.76274e-05 55.2494 -16.7515 6.53329 180 84.4931 180 -8.15208 4.95321 -0.353207 -19.0932 8.43519 -3.41557e-05 -39.5325 9.92982 -4.30774 180 -68.7236 180 3.7618 1.52214 0.0500016 0.888416 -8.86612 -12.5183 16.253 -17.2639 -56.954 -0 -0 57.8621 -1.14187e-05 -18.3518 -16.4264 -174.641 -5.40872e-07 -20.4432 7.79803 14.9188 -9.8894 -0 -0 61.0946 5.03115e-06 -9.02478 4.85014 -0.769401 -5.34879e-06 -73.868 
-9.024 75.065 -8.7168 24.0896 79.4826 38.853 0 -0 0 5.4491 -12.5975 24.5862 25.0473 -8.55414 -8.44994e-06 54.9628 -15.2287 6.35869 -180 85.421 -180 -8.96545 4.24962 -0.333299 -19.1288 8.21229 -5.75741e-05 -40.632 11.5575 -3.49057 180 -69.4928 180 3.13294 1.24345 0.0339979 0.906819 -9.17523 -12.2021 16.0179 -17.0633 -56.1102 -0 -0 59.0197 2.09419e-05 -18.4966 -17.6075 -174.222 -7.85869e-06 -19.999 8.13561 13.7345 -9.49631 -0 -0 62.1465 -3.30356e-07 -8.8024 5.86577 -0.906717 -3.53744e-06 -71.1634 
